<?xml version="1.0" encoding="UTF-8" standalone="no"?>
<!DOCTYPE svg PUBLIC "-//W3C//DTD SVG 1.1//EN" "http://www.w3.org/Graphics/SVG/1.1/DTD/svg11.dtd">
<svg width="100%" height="100%" viewBox="0 0 2047 1859" version="1.1" xmlns="http://www.w3.org/2000/svg" xmlns:xlink="http://www.w3.org/1999/xlink" xml:space="preserve" xmlns:serif="http://www.serif.com/" style="fill-rule:evenodd;clip-rule:evenodd;stroke-linejoin:round;stroke-miterlimit:2;">
    <g transform="matrix(1,0,0,1,-24468,-17628.1)">
        <g id="Final---Simple" serif:id="Final - Simple" transform="matrix(0.361397,0,0,0.556571,16278.4,10125.2)">
            <rect x="22661" y="13480.5" width="5662.46" height="3339.88" style="fill:none;"/>
            <g transform="matrix(2.35865,0.939466,-1.44683,1.53153,24449.6,11539)">
                <path d="M1764.57,874.964L1928.65,1003.34C1928.65,1003.34 1847.78,1114.51 1854.11,1326.87L1645.87,1333.09C1636.84,1030.38 1764.57,874.964 1764.57,874.964Z" style="fill:rgb(240,212,117);"/>
            </g>
            <g transform="matrix(2.76704,0,0,1.79671,-11660.1,1307.44)">
                <path d="M13982.5,7266.97C13982.5,7266.97 13582.9,7449.03 13312.1,8310.09C13312.1,8310.09 12418.4,7863.58 12763.3,7351.02C13108.2,6838.47 13982.5,7266.97 13982.5,7266.97ZM13577.3,7344.17C13501.5,7325.75 13417.9,7311.48 13333.3,7308.19C13185.6,7302.44 13029.8,7328.14 12936.1,7467.32C12857.8,7583.72 12903.8,7692.96 12973,7783.53C13038,7868.55 13123.7,7941.7 13201.6,7998.14C13322.8,7692.86 13458.3,7484.39 13577.3,7344.17Z" style="fill:rgb(234,180,62);"/>
            </g>
            <g transform="matrix(2.76704,0,0,1.79671,-11660.1,1307.44)">
                <path d="M13144.3,8210.46C12903.9,8050.72 12516.5,7717.78 12763.3,7351.02C12975.1,7036.25 13386.5,7076.39 13672.6,7154.24C13696.1,7191.36 13700.8,7236.66 13680.8,7278.74C13658.7,7325.2 13611.6,7357 13557.8,7367.56C13564.4,7359.56 13570.9,7351.77 13577.3,7344.17C13501.5,7325.75 13417.9,7311.48 13333.3,7308.19C13185.6,7302.44 13029.8,7328.14 12936.1,7467.32C12857.8,7583.72 12903.8,7692.96 12973,7783.53C13038,7868.55 13123.7,7941.7 13201.6,7998.14C13211.8,7972.68 13222,7947.89 13232.2,7923.75C13236.4,7925.22 13240.6,7926.57 13244.8,7927.79C13323.9,7950.76 13400.1,7928.82 13455.4,7909.17C13460.3,7907.42 13465.1,7905.66 13469.8,7903.89C13424.7,7998.62 13380.3,8106.66 13338.4,8229.69C13276.5,8232.75 13210.8,8228.05 13144.3,8210.46Z" style="fill:rgb(240,212,117);"/>
            </g>
            <g transform="matrix(2.35865,0.939466,-1.44683,1.53153,24449.6,11539)">
                <path d="M1764.57,874.964L1928.65,1003.34C1928.65,1003.34 1847.78,1114.51 1854.11,1326.87L1645.87,1333.09C1636.84,1030.38 1764.57,874.964 1764.57,874.964Z" style="fill:rgb(240,212,117);"/>
            </g>
            <g transform="matrix(2.76704,0,0,1.79671,-11660.1,1307.44)">
                <path d="M13982.5,7266.97C13982.5,7266.97 13582.9,7449.03 13312.1,8310.09C13312.1,8310.09 12418.4,7863.58 12763.3,7351.02C13108.2,6838.47 13982.5,7266.97 13982.5,7266.97ZM13577.3,7344.17C13501.5,7325.75 13417.9,7311.48 13333.3,7308.19C13185.6,7302.44 13029.8,7328.14 12936.1,7467.32C12857.8,7583.72 12903.8,7692.96 12973,7783.53C13038,7868.55 13123.7,7941.7 13201.6,7998.14C13322.8,7692.86 13458.3,7484.39 13577.3,7344.17Z" style="fill:rgb(234,180,62);"/>
            </g>
            <g transform="matrix(2.76704,0,0,1.79671,-11660.1,1307.44)">
                <path d="M13144.3,8210.46C12903.9,8050.72 12516.5,7717.78 12763.3,7351.02C12975.1,7036.25 13386.5,7076.39 13672.6,7154.24C13696.1,7191.36 13700.8,7236.66 13680.8,7278.74C13658.7,7325.2 13611.6,7357 13557.8,7367.56C13564.4,7359.56 13570.9,7351.77 13577.3,7344.17C13501.5,7325.75 13417.9,7311.48 13333.3,7308.19C13185.6,7302.44 13029.8,7328.14 12936.1,7467.32C12857.8,7583.72 12903.8,7692.96 12973,7783.53C13038,7868.55 13123.7,7941.7 13201.6,7998.14C13211.8,7972.68 13222,7947.89 13232.2,7923.75C13236.4,7925.22 13240.6,7926.57 13244.8,7927.79C13323.9,7950.76 13400.1,7928.82 13455.4,7909.17C13460.3,7907.42 13465.1,7905.66 13469.8,7903.89C13424.7,7998.62 13380.3,8106.66 13338.4,8229.69C13276.5,8232.75 13210.8,8228.05 13144.3,8210.46Z" style="fill:rgb(240,212,117);"/>
            </g>
        </g>
    </g>
</svg>
