<?xml version="1.0" encoding="UTF-8" standalone="no"?>
<!DOCTYPE svg PUBLIC "-//W3C//DTD SVG 1.1//EN" "http://www.w3.org/Graphics/SVG/1.1/DTD/svg11.dtd">
<svg width="100%" height="100%" viewBox="0 0 3268 1951" version="1.1" xmlns="http://www.w3.org/2000/svg" xmlns:xlink="http://www.w3.org/1999/xlink" xml:space="preserve" xmlns:serif="http://www.serif.com/" style="fill-rule:evenodd;clip-rule:evenodd;stroke-linejoin:round;stroke-miterlimit:2;">
    <g transform="matrix(1,0,0,1,-23857.6,-14174.7)">
        <g id="Final" transform="matrix(0.577005,0,0,0.58402,10782.1,6301.76)">
            <rect x="22661" y="13480.5" width="5662.46" height="3339.88" style="fill:none;"/>
            <g transform="matrix(1.47729,0.895311,-0.906196,1.45955,24116.2,11708.7)">
                <path d="M1764.57,874.964L1928.65,1003.34C1928.65,1003.34 1847.78,1114.51 1854.11,1326.87L1645.87,1333.09C1636.84,1030.38 1764.57,874.964 1764.57,874.964Z" style="fill:rgb(240,212,117);"/>
            </g>
            <g transform="matrix(1.73309,0,0,1.71227,1499.58,1958.06)">
                <path d="M13982.5,7266.97C13982.5,7266.97 13582.9,7449.03 13312.1,8310.09C13312.1,8310.09 12418.4,7863.58 12763.3,7351.02C13108.2,6838.47 13982.5,7266.97 13982.5,7266.97ZM13577.3,7344.17C13501.5,7325.75 13417.9,7311.48 13333.3,7308.19C13185.6,7302.44 13029.8,7328.14 12936.1,7467.32C12857.8,7583.72 12903.8,7692.96 12973,7783.53C13038,7868.55 13123.7,7941.7 13201.6,7998.14C13322.8,7692.86 13458.3,7484.39 13577.3,7344.17ZM13492.2,8302.85L13581.5,8070.11L13653.4,8070.11L13742.6,8302.85L13671.8,8302.85L13652.3,8253.34L13582.2,8253.34L13563,8302.85L13492.2,8302.85ZM13591.2,8204.55L13643.3,8204.55L13617.2,8136.24L13591.2,8204.55ZM13885,8306.47C13842.9,8306.47 13810.7,8296.11 13788.5,8275.39C13766.4,8254.67 13755.3,8225.39 13755.3,8187.56C13755.3,8148.53 13766.1,8118.6 13787.8,8097.76C13809.5,8076.91 13841.8,8066.49 13884.7,8066.49C13899.1,8066.49 13912,8067.58 13923.3,8069.75C13934.7,8071.91 13945.5,8074.93 13955.9,8078.78L13955.9,8138.05C13935.1,8128.9 13913,8124.32 13889.4,8124.32C13867.4,8124.32 13851.2,8129.32 13840.6,8139.32C13830,8149.32 13824.7,8165.4 13824.7,8187.56C13824.7,8209.25 13830.3,8224.85 13841.5,8234.37C13852.7,8243.88 13868.9,8248.64 13890.1,8248.64C13901.7,8248.64 13912.9,8247.56 13923.9,8245.39C13934.8,8243.22 13945.7,8239.85 13956.6,8235.27L13956.6,8294.9C13946.2,8298.51 13935.3,8301.35 13923.9,8303.39C13912.4,8305.44 13899.5,8306.47 13885,8306.47ZM13996.3,8302.85L13996.3,8070.11L14064.3,8070.11L14064.3,8156.85L14144.5,8156.85L14144.5,8070.11L14212.5,8070.11L14212.5,8302.85L14144.5,8302.85L14144.5,8216.11L14064.3,8216.11L14064.3,8302.85L13996.3,8302.85ZM14252.2,8302.85L14341.5,8070.11L14413.4,8070.11L14502.7,8302.85L14431.8,8302.85L14412.3,8253.34L14342.2,8253.34L14323.1,8302.85L14252.2,8302.85ZM14351.2,8204.55L14403.3,8204.55L14377.3,8136.24L14351.2,8204.55ZM14542.4,8302.85L14542.4,8070.11L14663.5,8070.11C14682.5,8070.11 14698.1,8073.6 14710.3,8080.59C14722.5,8087.58 14731.6,8097.27 14737.6,8109.68C14743.6,8122.09 14746.6,8136.49 14746.6,8152.87C14746.6,8168.53 14742.7,8182.32 14734.9,8194.25C14727,8206.18 14716.6,8215.27 14703.6,8221.54C14706.3,8223.7 14708.5,8226.3 14710.5,8229.31C14712.4,8232.32 14714.6,8236.47 14717,8241.77L14743.7,8302.85L14672.9,8302.85L14648.3,8246.83C14646.4,8242.5 14644,8239.43 14641.3,8237.62C14638.5,8235.81 14634.6,8234.91 14629.5,8234.91L14610.4,8234.91L14610.4,8302.85L14542.4,8302.85ZM14610.4,8182.87L14646.1,8182.87C14656,8182.87 14663.7,8180.28 14669.1,8175.1C14674.5,8169.92 14677.2,8162.51 14677.2,8152.87C14677.2,8132.39 14667.6,8122.15 14648.3,8122.15L14610.4,8122.15L14610.4,8182.87ZM14786.4,8302.85L14786.4,8070.11L14890.5,8070.11C14914.3,8070.11 14934.7,8074.02 14951.5,8081.85C14968.4,8089.68 14981.3,8102.21 14990.2,8119.44C14999.1,8136.67 15003.6,8159.49 15003.6,8187.93C15003.6,8227.92 14993.8,8257.07 14974.3,8275.39C14954.8,8293.7 14926.8,8302.85 14890.5,8302.85L14786.4,8302.85ZM14854.3,8250.81L14881.8,8250.81C14893.1,8250.81 14902.6,8249.18 14910.3,8245.93C14918,8242.68 14923.9,8236.53 14928,8227.5C14932.1,8218.46 14934.2,8205.27 14934.2,8187.93C14934.2,8170.58 14932.3,8157.15 14928.6,8147.63C14924.8,8138.11 14919.1,8131.49 14911.4,8127.75C14903.7,8124.02 14893.8,8122.15 14881.8,8122.15L14854.3,8122.15L14854.3,8250.81Z" style="fill:rgb(234,180,62);"/>
            </g>
            <g transform="matrix(1.73309,0,0,1.71227,1499.58,1958.06)">
                <path d="M13144.3,8210.46C12903.9,8050.72 12516.5,7717.78 12763.3,7351.02C12975.1,7036.25 13386.5,7076.39 13672.6,7154.24C13696.1,7191.36 13700.8,7236.66 13680.8,7278.74C13658.7,7325.2 13611.6,7357 13557.8,7367.56C13564.4,7359.56 13570.9,7351.77 13577.3,7344.17C13501.5,7325.75 13417.9,7311.48 13333.3,7308.19C13185.6,7302.44 13029.8,7328.14 12936.1,7467.32C12857.8,7583.72 12903.8,7692.96 12973,7783.53C13038,7868.55 13123.7,7941.7 13201.6,7998.14C13211.8,7972.68 13222,7947.89 13232.2,7923.75C13236.4,7925.22 13240.6,7926.57 13244.8,7927.79C13323.9,7950.76 13400.1,7928.82 13455.4,7909.17C13460.3,7907.42 13465.1,7905.66 13469.8,7903.89C13424.7,7998.62 13380.3,8106.66 13338.4,8229.69C13276.5,8232.75 13210.8,8228.05 13144.3,8210.46ZM14609.9,8302.85L14542.4,8302.85L14542.4,8155.4C14561.9,8183.14 14579.6,8212.32 14595.4,8242.85C14605.4,8262.41 14610.1,8282.81 14609.9,8302.85ZM14065.4,8156.85L14144.5,8156.85L14144.5,8070.11L14212.5,8070.11L14212.5,8269.52C14171.5,8222.7 14121.3,8184.37 14065.4,8156.85ZM13996.3,8129.38L13996.3,8070.11L14064.3,8070.11L14064.3,8156.32C14042.4,8145.65 14019.7,8136.63 13996.3,8129.38ZM13773,8116.05C13777.2,8109.33 13782.1,8103.23 13787.8,8097.76C13809.5,8076.91 13841.8,8066.49 13884.7,8066.49C13899.1,8066.49 13912,8067.58 13923.3,8069.75C13934.7,8071.91 13945.5,8074.93 13955.9,8078.78L13955.9,8118.78C13897.2,8106.17 13835.2,8104.59 13773,8116.05ZM13533.2,8195.97L13581.5,8070.11L13653.4,8070.11L13681.4,8143.07C13666.9,8148.9 13648.9,8156.26 13627.9,8164.22L13617.2,8136.24L13603.1,8173.37C13582,8180.92 13558.5,8188.69 13533.2,8195.97ZM14252.2,8302.85L14341.5,8070.11L14413.4,8070.11L14502.7,8302.85L14431.8,8302.85L14412.3,8253.34L14342.2,8253.34L14323.1,8302.85L14252.2,8302.85ZM14351.2,8204.55L14403.3,8204.55L14377.3,8136.24L14351.2,8204.55Z" style="fill:rgb(240,212,117);"/>
            </g>
            <g transform="matrix(1.47729,0.895311,-0.906196,1.45955,24116.2,11708.7)">
                <path d="M1764.57,874.964L1928.65,1003.34C1928.65,1003.34 1847.78,1114.51 1854.11,1326.87L1645.87,1333.09C1636.84,1030.38 1764.57,874.964 1764.57,874.964Z" style="fill:rgb(240,212,117);"/>
            </g>
            <g transform="matrix(1.73309,0,0,1.71227,1499.58,1958.06)">
                <path d="M13982.5,7266.97C13982.5,7266.97 13582.9,7449.03 13312.1,8310.09C13312.1,8310.09 12418.4,7863.58 12763.3,7351.02C13108.2,6838.47 13982.5,7266.97 13982.5,7266.97ZM13577.3,7344.17C13501.5,7325.75 13417.9,7311.48 13333.3,7308.19C13185.6,7302.44 13029.8,7328.14 12936.1,7467.32C12857.8,7583.72 12903.8,7692.96 12973,7783.53C13038,7868.55 13123.7,7941.7 13201.6,7998.14C13322.8,7692.86 13458.3,7484.39 13577.3,7344.17ZM13492.2,8302.85L13581.5,8070.11L13653.4,8070.11L13742.6,8302.85L13671.8,8302.85L13652.3,8253.34L13582.2,8253.34L13563,8302.85L13492.2,8302.85ZM13591.2,8204.55L13643.3,8204.55L13617.2,8136.24L13591.2,8204.55ZM13885,8306.47C13842.9,8306.47 13810.7,8296.11 13788.5,8275.39C13766.4,8254.67 13755.3,8225.39 13755.3,8187.56C13755.3,8148.53 13766.1,8118.6 13787.8,8097.76C13809.5,8076.91 13841.8,8066.49 13884.7,8066.49C13899.1,8066.49 13912,8067.58 13923.3,8069.75C13934.7,8071.91 13945.5,8074.93 13955.9,8078.78L13955.9,8138.05C13935.1,8128.9 13913,8124.32 13889.4,8124.32C13867.4,8124.32 13851.2,8129.32 13840.6,8139.32C13830,8149.32 13824.7,8165.4 13824.7,8187.56C13824.7,8209.25 13830.3,8224.85 13841.5,8234.37C13852.7,8243.88 13868.9,8248.64 13890.1,8248.64C13901.7,8248.64 13912.9,8247.56 13923.9,8245.39C13934.8,8243.22 13945.7,8239.85 13956.6,8235.27L13956.6,8294.9C13946.2,8298.51 13935.3,8301.35 13923.9,8303.39C13912.4,8305.44 13899.5,8306.47 13885,8306.47ZM13996.3,8302.85L13996.3,8070.11L14064.3,8070.11L14064.3,8156.85L14144.5,8156.85L14144.5,8070.11L14212.5,8070.11L14212.5,8302.85L14144.5,8302.85L14144.5,8216.11L14064.3,8216.11L14064.3,8302.85L13996.3,8302.85ZM14252.2,8302.85L14341.5,8070.11L14413.4,8070.11L14502.7,8302.85L14431.8,8302.85L14412.3,8253.34L14342.2,8253.34L14323.1,8302.85L14252.2,8302.85ZM14351.2,8204.55L14403.3,8204.55L14377.3,8136.24L14351.2,8204.55ZM14542.4,8302.85L14542.4,8070.11L14663.5,8070.11C14682.5,8070.11 14698.1,8073.6 14710.3,8080.59C14722.5,8087.58 14731.6,8097.27 14737.6,8109.68C14743.6,8122.09 14746.6,8136.49 14746.6,8152.87C14746.6,8168.53 14742.7,8182.32 14734.9,8194.25C14727,8206.18 14716.6,8215.27 14703.6,8221.54C14706.3,8223.7 14708.5,8226.3 14710.5,8229.31C14712.4,8232.32 14714.6,8236.47 14717,8241.77L14743.7,8302.85L14672.9,8302.85L14648.3,8246.83C14646.4,8242.5 14644,8239.43 14641.3,8237.62C14638.5,8235.81 14634.6,8234.91 14629.5,8234.91L14610.4,8234.91L14610.4,8302.85L14542.4,8302.85ZM14610.4,8182.87L14646.1,8182.87C14656,8182.87 14663.7,8180.28 14669.1,8175.1C14674.5,8169.92 14677.2,8162.51 14677.2,8152.87C14677.2,8132.39 14667.6,8122.15 14648.3,8122.15L14610.4,8122.15L14610.4,8182.87ZM14786.4,8302.85L14786.4,8070.11L14890.5,8070.11C14914.3,8070.11 14934.7,8074.02 14951.5,8081.85C14968.4,8089.68 14981.3,8102.21 14990.2,8119.44C14999.1,8136.67 15003.6,8159.49 15003.6,8187.93C15003.6,8227.92 14993.8,8257.07 14974.3,8275.39C14954.8,8293.7 14926.8,8302.85 14890.5,8302.85L14786.4,8302.85ZM14854.3,8250.81L14881.8,8250.81C14893.1,8250.81 14902.6,8249.18 14910.3,8245.93C14918,8242.68 14923.9,8236.53 14928,8227.5C14932.1,8218.46 14934.2,8205.27 14934.2,8187.93C14934.2,8170.58 14932.3,8157.15 14928.6,8147.63C14924.8,8138.11 14919.1,8131.49 14911.4,8127.75C14903.7,8124.02 14893.8,8122.15 14881.8,8122.15L14854.3,8122.15L14854.3,8250.81Z" style="fill:rgb(234,180,62);"/>
            </g>
            <g transform="matrix(1.73309,0,0,1.71227,1499.58,1958.06)">
                <path d="M13144.3,8210.46C12903.9,8050.72 12516.5,7717.78 12763.3,7351.02C12975.1,7036.25 13386.5,7076.39 13672.6,7154.24C13696.1,7191.36 13700.8,7236.66 13680.8,7278.74C13658.7,7325.2 13611.6,7357 13557.8,7367.56C13564.4,7359.56 13570.9,7351.77 13577.3,7344.17C13501.5,7325.75 13417.9,7311.48 13333.3,7308.19C13185.6,7302.44 13029.8,7328.14 12936.1,7467.32C12857.8,7583.72 12903.8,7692.96 12973,7783.53C13038,7868.55 13123.7,7941.7 13201.6,7998.14C13211.8,7972.68 13222,7947.89 13232.2,7923.75C13236.4,7925.22 13240.6,7926.57 13244.8,7927.79C13323.9,7950.76 13400.1,7928.82 13455.4,7909.17C13460.3,7907.42 13465.1,7905.66 13469.8,7903.89C13424.7,7998.62 13380.3,8106.66 13338.4,8229.69C13276.5,8232.75 13210.8,8228.05 13144.3,8210.46ZM14609.9,8302.85L14542.4,8302.85L14542.4,8155.4C14561.9,8183.14 14579.6,8212.32 14595.4,8242.85C14605.4,8262.41 14610.1,8282.81 14609.9,8302.85ZM14065.4,8156.85L14144.5,8156.85L14144.5,8070.11L14212.5,8070.11L14212.5,8269.52C14171.5,8222.7 14121.3,8184.37 14065.4,8156.85ZM13996.3,8129.38L13996.3,8070.11L14064.3,8070.11L14064.3,8156.32C14042.4,8145.65 14019.7,8136.63 13996.3,8129.38ZM13773,8116.05C13777.2,8109.33 13782.1,8103.23 13787.8,8097.76C13809.5,8076.91 13841.8,8066.49 13884.7,8066.49C13899.1,8066.49 13912,8067.58 13923.3,8069.75C13934.7,8071.91 13945.5,8074.93 13955.9,8078.78L13955.9,8118.78C13897.2,8106.17 13835.2,8104.59 13773,8116.05ZM13533.2,8195.97L13581.5,8070.11L13653.4,8070.11L13681.4,8143.07C13666.9,8148.9 13648.9,8156.26 13627.9,8164.22L13617.2,8136.24L13603.1,8173.37C13582,8180.92 13558.5,8188.69 13533.2,8195.97ZM14252.2,8302.85L14341.5,8070.11L14413.4,8070.11L14502.7,8302.85L14431.8,8302.85L14412.3,8253.34L14342.2,8253.34L14323.1,8302.85L14252.2,8302.85ZM14351.2,8204.55L14403.3,8204.55L14377.3,8136.24L14351.2,8204.55Z" style="fill:rgb(240,212,117);"/>
            </g>
        </g>
    </g>
</svg>
